<svg width="192" height="192" xmlns="http://www.w3.org/2000/svg" xmlns:svg="http://www.w3.org/2000/svg">
 <g>
  <path d="m101,-33l44,2l63,-2l-107,0z" fill="#9fc0e0" stroke="#9fc0e0" stroke-width="1.51" id="svg_1"/>
  <path d="m70,-35l31,2l107,0l-138,-2z" fill="#a9cae6" stroke="#a9cae6" stroke-width="1.51" id="svg_2"/>
  <path d="m145,-31l25,1l38,-3l-63,2z" fill="#98b5db" stroke="#98b5db" stroke-width="1.51" id="svg_3"/>
  <path d="m244,142l-35,3l37,31l-2,-34z" fill="#2a6bab" stroke="#2a6bab" stroke-width="1.51" id="svg_4"/>
  <path d="m246,176l-38,6l39,32l-1,-38z" fill="#175da2" stroke="#175da2" stroke-width="1.51" id="svg_5"/>
  <path d="m211,223l3,22l33,-31l-36,9z" fill="#0a529d" stroke="#0a529d" stroke-width="1.51" id="svg_6"/>
  <path d="m216,2l-6,36l39,-2l-33,-34z" fill="#7a93c6" stroke="#7a93c6" stroke-width="1.51" id="svg_7"/>
  <path d="m210,38l-1,34l40,-36l-39,2z" fill="#7090c3" stroke="#7090c3" stroke-width="1.51" id="svg_8"/>
  <path d="m249,36l-40,36l41,8l-1,-44z" fill="#6587b9" stroke="#6587b9" stroke-width="1.51" id="svg_9"/>
  <path d="m136,253l-67,4l181,-2l-114,-2z" fill="#28639f" stroke="#28639f" stroke-width="1.51" id="svg_10"/>
  <path d="m173,251l-37,2l114,2l-77,-4z" fill="#165699" stroke="#165699" stroke-width="1.51" id="svg_11"/>
  <path d="m214,245l-41,6l77,4l-36,-10z" fill="#0e4d92" stroke="#0e4d92" stroke-width="1.51" id="svg_12"/>
  <path d="m247,214l-33,31l36,10l-3,-41z" fill="#09488f" stroke="#09488f" stroke-width="1.51" id="svg_13"/>
  <path d="m250,80l-33,30l34,2l-1,-32z" fill="#4c7bb1" stroke="#4c7bb1" stroke-width="1.51" id="svg_14"/>
  <path d="m217,110l27,32l7,-30l-34,-2z" fill="#3e75ae" stroke="#3e75ae" stroke-width="1.51" id="svg_15"/>
  <path d="m244,142l2,34l5,-64l-7,30z" fill="#2f69a3" stroke="#2f69a3" stroke-width="1.51" id="svg_16"/>
  <path d="m247,214l3,41l1,-143l-4,102z" fill="#165597" stroke="#165597" stroke-width="1.51" id="svg_17"/>
  <path d="m246,176l1,38l4,-102l-5,64z" fill="#235f9e" stroke="#235f9e" stroke-width="1.51" id="svg_18"/>
  <path d="m216,2l33,34l3,-30l-36,-4z" fill="#7a8fbd" stroke="#7a8fbd" stroke-width="1.51" id="svg_19"/>
  <path d="m243,-30l-27,32l36,4l-9,-36z" fill="#8294c1" stroke="#8294c1" stroke-width="1.51" id="svg_20"/>
  <path d="m249,36l1,44l2,-74l-3,30z" fill="#6e85b2" stroke="#6e85b2" stroke-width="1.51" id="svg_21"/>
  <path d="m250,80l1,32l1,-106l-2,74z" fill="#617fae" stroke="#617fae" stroke-width="1.51" id="svg_22"/>
  <path d="m209,72l8,38l33,-30l-41,-8z" fill="#5885bb" stroke="#5885bb" stroke-width="1.51" id="svg_23"/>
  <path d="m208,182l3,41l36,-9l-39,-32z" fill="#125ba4" stroke="#125ba4" stroke-width="1.51" id="svg_24"/>
  <path d="m209,145l-1,37l38,-6l-37,-31z" fill="#256bae" stroke="#256bae" stroke-width="1.51" id="svg_25"/>
  <path d="m217,110l-8,35l35,-3l-27,-32z" fill="#3977b5" stroke="#3977b5" stroke-width="1.51" id="svg_26"/>
  <path d="m208,-33l8,35l27,-32l-35,-3z" fill="#8a9dcb" stroke="#8a9dcb" stroke-width="1.51" id="svg_27"/>
  <path d="m-40,-24l47,2l63,-13l-110,11z" fill="#ddeaf7" stroke="#ddeaf7" stroke-width="1.51" id="svg_28"/>
  <path d="m174,186l4,35l30,-39l-34,4z" fill="#1f6db2" stroke="#1f6db2" stroke-width="1.51" id="svg_29"/>
  <path d="m170,-30l3,37l35,-40l-38,3z" fill="#91afd8" stroke="#91afd8" stroke-width="1.51" id="svg_30"/>
  <path d="m175,71l2,46l32,-45l-34,-1z" fill="#5f96c9" stroke="#5f96c9" stroke-width="1.51" id="svg_31"/>
  <path d="m180,144l28,38l1,-37l-29,-1z" fill="#2e79b8" stroke="#2e79b8" stroke-width="1.51" id="svg_32"/>
  <path d="m173,7l7,30l30,1l-37,-31z" fill="#81a4d2" stroke="#81a4d2" stroke-width="1.51" id="svg_33"/>
  <path d="m180,37l29,35l1,-34l-30,-1z" fill="#749aca" stroke="#749aca" stroke-width="1.51" id="svg_34"/>
  <path d="m208,182l-30,39l33,2l-3,-41z" fill="#1963ab" stroke="#1963ab" stroke-width="1.51" id="svg_35"/>
  <path d="m173,7l37,31l6,-36l-43,5z" fill="#82a1cf" stroke="#82a1cf" stroke-width="1.51" id="svg_36"/>
  <path d="m208,-33l-35,40l43,-5l-8,-35z" fill="#8aa6d2" stroke="#8aa6d2" stroke-width="1.51" id="svg_37"/>
  <path d="m177,117l32,28l8,-35l-40,7z" fill="#4284be" stroke="#4284be" stroke-width="1.51" id="svg_38"/>
  <path d="m209,72l-32,45l40,-7l-8,-38z" fill="#538cc2" stroke="#538cc2" stroke-width="1.51" id="svg_39"/>
  <path d="m177,117l3,27l29,1l-32,-28z" fill="#3d85bf" stroke="#3d85bf" stroke-width="1.51" id="svg_40"/>
  <path d="m180,37l-5,34l34,1l-29,-35z" fill="#709dcc" stroke="#709dcc" stroke-width="1.51" id="svg_41"/>
  <path d="m211,223l-33,-2l36,24l-3,-22z" fill="#125aa3" stroke="#125aa3" stroke-width="1.51" id="svg_42"/>
  <path d="m178,221l-5,30l41,-6l-36,-24z" fill="#165ba2" stroke="#165ba2" stroke-width="1.51" id="svg_43"/>
  <path d="m180,144l-6,42l34,-4l-28,-38z" fill="#2b78b8" stroke="#2b78b8" stroke-width="1.51" id="svg_44"/>
  <path d="m106,249l-37,8l67,-4l-30,-4z" fill="#4374aa" stroke="#4374aa" stroke-width="1.51" id="svg_45"/>
  <path d="m170,-30l-25,-1l28,38l-3,-37z" fill="#97b8dc" stroke="#97b8dc" stroke-width="1.51" id="svg_46"/>
  <path d="m141,145l4,41l29,0l-33,-41z" fill="#3785c0" stroke="#3785c0" stroke-width="1.51" id="svg_47"/>
  <path d="m139,73l3,41l33,-43l-36,2z" fill="#69a6d0" stroke="#69a6d0" stroke-width="1.51" id="svg_48"/>
  <path d="m140,38l-1,35l36,-2l-35,-33z" fill="#79add4" stroke="#79add4" stroke-width="1.51" id="svg_49"/>
  <path d="m142,114l-1,31l36,-28l-35,-3z" fill="#4e97ca" stroke="#4e97ca" stroke-width="1.51" id="svg_50"/>
  <path d="m175,71l-33,43l35,3l-2,-46z" fill="#5b9ccc" stroke="#5b9ccc" stroke-width="1.51" id="svg_51"/>
  <path d="m134,219l39,32l5,-30l-44,-2z" fill="#246aad" stroke="#246aad" stroke-width="1.51" id="svg_52"/>
  <path d="m174,186l-29,0l33,35l-4,-35z" fill="#2a76b7" stroke="#2a76b7" stroke-width="1.51" id="svg_53"/>
  <path d="m145,186l-11,33l44,2l-33,-35z" fill="#2d77b6" stroke="#2d77b6" stroke-width="1.51" id="svg_54"/>
  <path d="m177,117l-36,28l39,-1l-3,-27z" fill="#458fc5" stroke="#458fc5" stroke-width="1.51" id="svg_55"/>
  <path d="m141,145l33,41l6,-42l-39,1z" fill="#3886c1" stroke="#3886c1" stroke-width="1.51" id="svg_56"/>
  <path d="m173,7l-32,6l39,24l-7,-30z" fill="#8ab0d8" stroke="#8ab0d8" stroke-width="1.51" id="svg_57"/>
  <path d="m141,13l-1,25l40,-1l-39,-24z" fill="#89b3d9" stroke="#89b3d9" stroke-width="1.51" id="svg_58"/>
  <path d="m140,38l35,33l5,-34l-40,1z" fill="#7da9d4" stroke="#7da9d4" stroke-width="1.51" id="svg_59"/>
  <path d="m145,-31l-4,44l32,-6l-28,-38z" fill="#95b9dd" stroke="#95b9dd" stroke-width="1.51" id="svg_60"/>
  <path d="m134,219l2,34l37,-2l-39,-32z" fill="#2a6ba9" stroke="#2a6ba9" stroke-width="1.51" id="svg_61"/>
  <path d="m40,253l-41,5l70,-1l-29,-4z" fill="#6d84b2" stroke="#6d84b2" stroke-width="1.51" id="svg_62"/>
  <path d="m102,42l9,35l28,-4l-37,-31z" fill="#85badb" stroke="#85badb" stroke-width="1.51" id="svg_63"/>
  <path d="m102,42l37,31l1,-35l-38,4z" fill="#88b9db" stroke="#88b9db" stroke-width="1.51" id="svg_64"/>
  <path d="m139,73l-28,4l31,37l-3,-41z" fill="#71add5" stroke="#71add5" stroke-width="1.51" id="svg_65"/>
  <path d="m111,77l-7,29l38,8l-31,-37z" fill="#6eaed6" stroke="#6eaed6" stroke-width="1.51" id="svg_66"/>
  <path d="m104,143l37,2l1,-31l-38,29z" fill="#559ecd" stroke="#559ecd" stroke-width="1.51" id="svg_67"/>
  <path d="m111,220l23,-1l11,-33l-34,34z" fill="#3a7fbb" stroke="#3a7fbb" stroke-width="1.51" id="svg_68"/>
  <path d="m107,175l4,45l34,-34l-38,-11z" fill="#4289c2" stroke="#4289c2" stroke-width="1.51" id="svg_69"/>
  <path d="m141,145l-34,30l38,11l-4,-41z" fill="#448fc6" stroke="#448fc6" stroke-width="1.51" id="svg_70"/>
  <path d="m107,6l34,7l4,-44l-38,37z" fill="#9dc2e2" stroke="#9dc2e2" stroke-width="1.51" id="svg_71"/>
  <path d="m101,-33l6,39l38,-37l-44,-2z" fill="#a7cae6" stroke="#a7cae6" stroke-width="1.51" id="svg_72"/>
  <path d="m134,219l-23,1l25,33l-2,-34z" fill="#3877b4" stroke="#3877b4" stroke-width="1.51" id="svg_73"/>
  <path d="m111,220l-5,29l30,4l-25,-33z" fill="#3d75b0" stroke="#3d75b0" stroke-width="1.51" id="svg_74"/>
  <path d="m107,6l-5,36l38,-4l-33,-32z" fill="#98c2e1" stroke="#98c2e1" stroke-width="1.51" id="svg_75"/>
  <path d="m104,143l3,32l34,-30l-37,-2z" fill="#519acb" stroke="#519acb" stroke-width="1.51" id="svg_76"/>
  <path d="m107,6l33,32l1,-25l-34,-7z" fill="#96bee0" stroke="#96bee0" stroke-width="1.51" id="svg_77"/>
  <path d="m104,106l0,37l38,-29l-38,-8z" fill="#62a7d2" stroke="#62a7d2" stroke-width="1.51" id="svg_78"/>
  <path d="m7,-22l35,-2l28,-11l-63,13z" fill="#d3e4f3" stroke="#d3e4f3" stroke-width="1.51" id="svg_79"/>
  <path d="m104,106l-35,5l35,32l0,-37z" fill="#71b0d7" stroke="#71b0d7" stroke-width="1.51" id="svg_80"/>
  <path d="m69,111l7,34l28,-2l-35,-32z" fill="#71aed5" stroke="#71aed5" stroke-width="1.51" id="svg_81"/>
  <path d="m104,143l-28,2l31,30l-3,-32z" fill="#5fa2cf" stroke="#5fa2cf" stroke-width="1.51" id="svg_82"/>
  <path d="m75,9l27,33l5,-36l-32,3z" fill="#a7cbe5" stroke="#a7cbe5" stroke-width="1.51" id="svg_83"/>
  <path d="m101,-33l-26,42l32,-3l-6,-39z" fill="#aed0e8" stroke="#aed0e8" stroke-width="1.51" id="svg_84"/>
  <path d="m68,214l38,35l5,-29l-43,-6z" fill="#4e83bb" stroke="#4e83bb" stroke-width="1.51" id="svg_85"/>
  <path d="m107,175l-30,7l34,38l-4,-45z" fill="#5291c6" stroke="#5291c6" stroke-width="1.51" id="svg_86"/>
  <path d="m77,182l-9,32l43,6l-34,-38z" fill="#5a90c4" stroke="#5a90c4" stroke-width="1.51" id="svg_87"/>
  <path d="m65,71l39,35l7,-29l-46,-6z" fill="#86bcdc" stroke="#86bcdc" stroke-width="1.51" id="svg_88"/>
  <path d="m102,42l-37,29l46,6l-9,-35z" fill="#93c2df" stroke="#93c2df" stroke-width="1.51" id="svg_89"/>
  <path d="m70,-35l5,44l26,-42l-31,-2z" fill="#bad7eb" stroke="#bad7eb" stroke-width="1.51" id="svg_90"/>
  <path d="m66,43l-1,28l37,-29l-36,1z" fill="#a2cae3" stroke="#a2cae3" stroke-width="1.51" id="svg_91"/>
  <path d="m65,71l4,40l35,-5l-39,-35z" fill="#88bddc" stroke="#88bddc" stroke-width="1.51" id="svg_92"/>
  <path d="m68,214l1,43l37,-8l-38,-35z" fill="#5681b6" stroke="#5681b6" stroke-width="1.51" id="svg_93"/>
  <path d="m76,145l1,37l30,-7l-31,-30z" fill="#629fcd" stroke="#629fcd" stroke-width="1.51" id="svg_94"/>
  <path d="m75,9l-9,34l36,-1l-27,-33z" fill="#aacee6" stroke="#aacee6" stroke-width="1.51" id="svg_95"/>
  <path d="m38,219l2,34l28,-39l-30,5z" fill="#6d8fc2" stroke="#6d8fc2" stroke-width="1.51" id="svg_96"/>
  <path d="m65,71l-26,34l30,6l-4,-40z" fill="#94c4e0" stroke="#94c4e0" stroke-width="1.51" id="svg_97"/>
  <path d="m68,214l-28,39l29,4l-1,-43z" fill="#6487b9" stroke="#6487b9" stroke-width="1.51" id="svg_98"/>
  <path d="m31,3l35,40l9,-34l-44,-6z" fill="#bcd7eb" stroke="#bcd7eb" stroke-width="1.51" id="svg_99"/>
  <path d="m70,-35l-28,11l33,33l-5,-44z" fill="#c4ddee" stroke="#c4ddee" stroke-width="1.51" id="svg_100"/>
  <path d="m42,-24l-11,27l44,6l-33,-33z" fill="#c7ddef" stroke="#c7ddef" stroke-width="1.51" id="svg_101"/>
  <path d="m42,147l0,32l34,-34l-34,2z" fill="#7baed5" stroke="#7baed5" stroke-width="1.51" id="svg_102"/>
  <path d="m69,111l-27,36l34,-2l-7,-34z" fill="#7eb5d8" stroke="#7eb5d8" stroke-width="1.51" id="svg_103"/>
  <path d="m76,145l-34,34l35,3l-1,-37z" fill="#71a6d1" stroke="#71a6d1" stroke-width="1.51" id="svg_104"/>
  <path d="m42,179l26,35l9,-32l-35,-3z" fill="#6b9dcc" stroke="#6b9dcc" stroke-width="1.51" id="svg_105"/>
  <path d="m31,3l8,44l27,-4l-35,-40z" fill="#bed7ec" stroke="#bed7ec" stroke-width="1.51" id="svg_106"/>
  <path d="m32,79l7,26l26,-34l-33,8z" fill="#a2cae3" stroke="#a2cae3" stroke-width="1.51" id="svg_107"/>
  <path d="m39,47l26,24l1,-28l-27,4z" fill="#add0e6" stroke="#add0e6" stroke-width="1.51" id="svg_108"/>
  <path d="m42,179l-4,40l30,-5l-26,-35z" fill="#7199ca" stroke="#7199ca" stroke-width="1.51" id="svg_109"/>
  <path d="m39,105l3,42l27,-36l-30,-6z" fill="#8bbcdd" stroke="#8bbcdd" stroke-width="1.51" id="svg_110"/>
  <path d="m39,47l-7,32l33,-8l-26,-24z" fill="#add0e6" stroke="#add0e6" stroke-width="1.51" id="svg_111"/>
  <path d="m31,3l-32,7l40,37l-8,-44z" fill="#ccdef1" stroke="#ccdef1" stroke-width="1.51" id="svg_112"/>
  <path d="m-1,10l-5,38l45,-1l-40,-37z" fill="#cadef0" stroke="#cadef0" stroke-width="1.51" id="svg_113"/>
  <path d="m38,219l-36,-3l38,37l-2,-34z" fill="#7893c5" stroke="#7893c5" stroke-width="1.51" id="svg_114"/>
  <path d="m2,216l-3,42l41,-5l-38,-37z" fill="#798fbe" stroke="#798fbe" stroke-width="1.51" id="svg_115"/>
  <path d="m39,105l-33,0l36,42l-3,-42z" fill="#97c1e1" stroke="#97c1e1" stroke-width="1.51" id="svg_116"/>
  <path d="m6,105l-4,43l40,-1l-36,-42z" fill="#95bedf" stroke="#95bedf" stroke-width="1.51" id="svg_117"/>
  <path d="m2,216l36,3l4,-40l-40,37z" fill="#7d9ecd" stroke="#7d9ecd" stroke-width="1.51" id="svg_118"/>
  <path d="m-6,182l8,34l40,-37l-48,3z" fill="#84a6d3" stroke="#84a6d3" stroke-width="1.51" id="svg_119"/>
  <path d="m42,147l-40,1l40,31l0,-32z" fill="#88b2d9" stroke="#88b2d9" stroke-width="1.51" id="svg_120"/>
  <path d="m2,148l-8,34l48,-3l-40,-31z" fill="#8ab0d8" stroke="#8ab0d8" stroke-width="1.51" id="svg_121"/>
  <path d="m7,-22l24,25l11,-27l-35,2z" fill="#d5e4f4" stroke="#d5e4f4" stroke-width="1.51" id="svg_122"/>
  <path d="m32,79l-26,26l33,0l-7,-26z" fill="#a5cae4" stroke="#a5cae4" stroke-width="1.51" id="svg_123"/>
  <path d="m-6,48l38,31l7,-32l-45,1z" fill="#bbd6eb" stroke="#bbd6eb" stroke-width="1.51" id="svg_124"/>
  <path d="m-6,48l2,31l36,0l-38,-31z" fill="#bad7ea" stroke="#bad7ea" stroke-width="1.51" id="svg_125"/>
  <path d="m7,-22l-8,32l32,-7l-24,-25z" fill="#d6e5f4" stroke="#d6e5f4" stroke-width="1.51" id="svg_126"/>
  <path d="m-4,79l10,26l26,-26l-36,0z" fill="#afd0e7" stroke="#afd0e7" stroke-width="1.51" id="svg_127"/>
  <path d="m-33,38l27,10l5,-38l-32,28z" fill="#d3e3f3" stroke="#d3e3f3" stroke-width="1.51" id="svg_128"/>
  <path d="m-35,220l-2,34l36,4l-34,-38z" fill="#8595c1" stroke="#8595c1" stroke-width="1.51" id="svg_129"/>
  <path d="m-35,220l34,38l3,-42l-37,4z" fill="#8499c8" stroke="#8499c8" stroke-width="1.51" id="svg_130"/>
  <path d="m-30,142l32,6l4,-43l-36,37z" fill="#9ec4e2" stroke="#9ec4e2" stroke-width="1.51" id="svg_131"/>
  <path d="m-37,112l7,30l36,-37l-43,7z" fill="#a7cae6" stroke="#a7cae6" stroke-width="1.51" id="svg_132"/>
  <path d="m-33,8l32,2l8,-32l-40,30z" fill="#dce9f6" stroke="#dce9f6" stroke-width="1.51" id="svg_133"/>
  <path d="m-40,-24l7,32l40,-30l-47,-2z" fill="#e3eef8" stroke="#e3eef8" stroke-width="1.51" id="svg_134"/>
  <path d="m-6,182l-22,0l30,34l-8,-34z" fill="#8baad5" stroke="#8baad5" stroke-width="1.51" id="svg_135"/>
  <path d="m-28,182l22,0l8,-34l-30,34z" fill="#91b4db" stroke="#91b4db" stroke-width="1.51" id="svg_136"/>
  <path d="m-30,142l2,40l30,-34l-32,-6z" fill="#98bcde" stroke="#98bcde" stroke-width="1.51" id="svg_137"/>
  <path d="m-4,79l-33,33l43,-7l-10,-26z" fill="#afd1e9" stroke="#afd1e9" stroke-width="1.51" id="svg_138"/>
  <path d="m-6,48l-28,22l30,9l-2,-31z" fill="#c3dced" stroke="#c3dced" stroke-width="1.51" id="svg_139"/>
  <path d="m-33,8l0,30l32,-28l-32,-2z" fill="#dae8f6" stroke="#dae8f6" stroke-width="1.51" id="svg_140"/>
  <path d="m-28,182l-7,38l37,-4l-30,-34z" fill="#8ca6d2" stroke="#8ca6d2" stroke-width="1.51" id="svg_141"/>
  <path d="m-34,70l-3,42l33,-33l-30,-9z" fill="#bad8eb" stroke="#bad8eb" stroke-width="1.51" id="svg_142"/>
  <path d="m-33,38l-1,32l28,-22l-27,-10z" fill="#cde1f0" stroke="#cde1f0" stroke-width="1.51" id="svg_143"/>
  <path d="m-37,112l2,108l5,-78l-7,-30z" fill="#9dbfdf" stroke="#9dbfdf" stroke-width="1.51" id="svg_144"/>
  <path d="m-30,142l-5,78l7,-38l-2,-40z" fill="#95b4da" stroke="#95b4da" stroke-width="1.51" id="svg_145"/>
  <path d="m-40,-24l6,94l1,-32l-7,-62z" fill="#dbe9f6" stroke="#dbe9f6" stroke-width="1.51" id="svg_146"/>
  <path d="m-40,-24l7,62l0,-30l-7,-32z" fill="#e2edf8" stroke="#e2edf8" stroke-width="1.51" id="svg_147"/>
  <path d="m-40,-24l3,136l3,-42l-6,-94z" fill="#d1e4f2" stroke="#d1e4f2" stroke-width="1.51" id="svg_148"/>
  <path d="m-37,112l0,142l2,-34l-2,-108z" fill="#93aed7" stroke="#93aed7" stroke-width="1.51" id="svg_149"/>
  <text id="svg_150" font-size="900%" x="50%" y="70%" font-family="serif" text-anchor="middle" stroke="black" fill="#fff">AB</text>
 </g>
</svg>
